<?xml version="1.0" standalone="no"?>
<!DOCTYPE svg PUBLIC "-//W3C//DTD SVG 20010904//EN"
 "http://www.w3.org/TR/2001/REC-SVG-20010904/DTD/svg10.dtd">
<svg version="1.0" xmlns="http://www.w3.org/2000/svg"
 width="225.000000pt" height="225.000000pt" viewBox="0 0 225.000000 225.000000"
 preserveAspectRatio="xMidYMid meet">
<metadata>
Created by potrace 1.11, written by Peter Selinger 2001-2013
</metadata>
<g transform="translate(0.000000,225.000000) scale(0.100000,-0.100000)"
fill="#000000" stroke="none">
<path d="M1969 2015 c-5 -5 -448 -124 -652 -176 -65 -16 -122 -27 -127 -24 -4
3 -13 27 -20 54 -6 27 -20 57 -31 66 -17 17 -23 16 -106 -4 -110 -27 -140 -39
-147 -58 -5 -12 6 -13 77 -8 59 5 78 3 67 -4 -8 -6 -26 -11 -40 -11 -43 -1
-53 -13 -45 -59 9 -53 -8 -54 -24 -1 -6 22 -16 40 -22 40 -5 0 -2 -17 6 -37
13 -31 14 -42 4 -61 -8 -14 -9 -26 -3 -31 5 -5 75 0 159 10 138 17 206 20 145
6 -25 -6 -266 -37 -287 -37 -9 0 -9 -8 -2 -30 7 -18 18 -30 28 -30 12 0 22
-14 31 -40 7 -22 17 -40 22 -40 5 0 4 9 -2 21 -6 11 -10 30 -8 42 4 19 6 17
23 -15 20 -40 33 -45 66 -27 11 5 27 9 36 7 9 -2 -14 -18 -53 -37 -58 -29 -80
-35 -141 -35 -39 -1 -75 -4 -79 -8 -4 -4 -10 -25 -13 -45 -6 -37 -7 -38 -56
-43 -28 -3 -56 -9 -64 -14 -8 -5 -152 -8 -326 -7 -318 3 -365 -1 -365 -25 0
-41 158 -173 280 -234 117 -58 298 -110 383 -110 18 0 41 -6 52 -14 11 -7 47
-16 79 -19 90 -9 144 -58 153 -139 6 -55 -9 -88 -69 -145 -49 -47 -116 -84
-200 -108 -31 -9 -61 -22 -68 -30 -6 -8 -10 -44 -8 -92 l3 -78 140 -7 140 -7
51 33 c76 51 136 68 255 74 126 5 188 -9 275 -66 l59 -38 140 2 c77 2 146 3
153 4 9 0 12 24 12 88 l-1 87 -65 69 c-58 60 -73 70 -122 81 -31 8 -59 12 -61
9 -7 -7 50 -63 87 -86 49 -30 32 -33 -25 -5 -161 82 -223 222 -157 355 68 137
244 225 532 267 59 8 120 20 135 27 39 15 57 56 57 128 0 110 59 100 -568 101
-491 1 -541 2 -489 15 106 25 110 32 78 127 l-20 56 37 11 c20 6 199 53 397
106 198 52 370 99 383 104 26 11 28 30 7 70 -12 24 -22 30 -49 30 -18 0 -35
-2 -37 -5z m164 -571 c33 -6 37 -10 37 -36 0 -28 -1 -28 -24 -13 -20 14 -95
15 -620 13 l-598 -3 -19 -24 -19 -23 0 39 c0 22 3 43 7 46 8 9 1185 9 1236 1z
m-1303 -138 c0 -52 -18 -73 -49 -56 -16 8 -21 20 -21 55 0 45 0 45 35 45 35 0
35 0 35 -44z m-122 1 c8 -6 12 -40 11 -106 l0 -96 -19 42 c-24 55 -54 69 -186
88 -150 22 -404 79 -404 91 0 9 585 -9 598 -19z m628 -586 c19 -12 65 -46 103
-76 82 -66 131 -85 225 -86 79 -1 58 -16 -24 -18 -56 -1 -70 -14 -70 -63 0
-21 -4 -38 -10 -38 -5 0 -10 7 -10 15 0 27 -37 88 -72 122 -52 49 -154 96
-220 101 -145 11 -318 -99 -318 -202 0 -14 -4 -28 -10 -31 -6 -4 -10 5 -10 20
0 39 -40 72 -96 80 -81 11 -82 13 -6 14 91 1 128 17 211 88 92 78 151 105 219
99 29 -2 69 -14 88 -25z"/>
<path d="M497 1695 c-26 -19 -11 -52 24 -51 17 1 27 6 25 12 -3 6 -1 15 4 20
15 15 -35 33 -53 19z"/>
<path d="M575 1651 c-3 -3 31 -18 76 -33 45 -15 84 -26 86 -25 1 2 -33 17 -77
34 -44 17 -82 28 -85 24z"/>
<path d="M570 1560 c0 -5 7 -10 15 -10 8 0 15 5 15 10 0 6 -7 10 -15 10 -8 0
-15 -4 -15 -10z"/>
<path d="M453 1523 c-7 -3 -13 -11 -13 -18 0 -18 27 -27 33 -11 7 17 -5 34
-20 29z"/>
<path d="M593 1493 c26 -2 67 -2 90 0 23 2 2 3 -48 3 -49 0 -68 -1 -42 -3z"/>
<path d="M795 707 c-79 -20 -113 -43 -131 -90 -5 -14 0 -14 33 -5 52 14 147
65 174 94 26 28 28 28 -76 1z"/>
</g>
</svg>
